<svg width="28" height="28" viewBox="0 0 28 28" fill="none" xmlns="http://www.w3.org/2000/svg">
<path fill-rule="evenodd" clip-rule="evenodd" d="M2 23C0.895401 23 7.82819e-08 22.1046 1.74846e-07 21L1.39876e-06 7C1.49533e-06 5.8954 0.895403 5 2 5C3.1046 5 4 5.8954 4 7L4 21C4 22.1046 3.1046 23 2 23ZM16 11.5L25.5 11.5C26.8807 11.5 28 12.6193 28 14C28 15.3807 26.8807 16.5 25.5 16.5L16 16.5L16 20.5858C16 21.4767 14.9229 21.9229 14.2929 21.2929L7.7072 14.7071C7.3166 14.3166 7.3166 13.6834 7.7072 13.2929L14.2929 6.7072C14.9229 6.0772 16 6.5234 16 7.4142L16 11.5Z" fill="black"/>
</svg>
